<svg viewBox="0 0 76 17" version="1.1" xmlns="http://www.w3.org/2000/svg" xmlns:xlink="http://www.w3.org/1999/xlink">
    <title>Saatva-logo</title>
    <desc>Created with Sketch.</desc>
    <defs>
        <polygon id="path-1" points="-0.000228425931 0.0730286271 13.0056588 0.0730286271 13.0056588 13.4822081 -0.000228425931 13.4822081"></polygon>
        <polygon id="path-3" points="0.350222638 0.284923997 5.18051738 0.284923997 5.18051738 15.8880599 0.350222638 15.8880599"></polygon>
        <polygon id="path-5" points="0.313446063 0.0730286271 13.3195617 0.0730286271 13.3195617 13.4822081 0.313446063 13.4822081"></polygon>
        <polygon id="path-7" points="0.0914617429 0.0730286271 13.0980343 0.0730286271 13.0980343 13.4822081 0.0914617429 13.4822081"></polygon>
    </defs>
    <g id="Page-1" stroke="none" stroke-width="1" fill="none" fill-rule="evenodd">
        <g id="Saatva-Mobile-Nav-3" transform="translate(-15.000000, -14.000000)">
            <g id="Saatva-logo" transform="translate(15.000000, 14.000000)">
                <g id="Group">
                    <polygon id="Fill-1" fill="#FFFFFF" points="59.0694382 3.26723336 55.3716792 13.5644945 55.048685 13.5644945 54.9691927 13.4152914 51.3253423 3.26723336 49.4691532 3.26723336 54.1724431 16.010167 56.2223374 16.010167 60.9260842 3.26723336"></polygon>
                    <g id="Group-4" transform="translate(62.131853, 2.861014)">
                        <mask id="mask-2" fill="white">
                            <use xlink:href="#path-1"></use>
                        </mask>
                        <g id="Clip-3"></g>
                        <path d="M10.8687342,8.78298445 C10.6170089,9.39372848 10.2752837,9.93706146 9.85223884,10.3990518 C9.42782346,10.8632892 8.923459,11.2336005 8.35239417,11.501447 C7.77950194,11.7706418 7.15681285,11.9077109 6.50168728,11.9077109 C5.84884597,11.9077109 5.22661373,11.7760346 4.65326464,11.5153786 C4.08265667,11.2565202 3.57326684,10.8893548 3.14062813,10.4260162 C2.70890312,9.9653741 2.36626422,9.42024349 2.12184848,8.80680302 C1.87880328,8.19381196 1.75591013,7.51565689 1.75591013,6.7903141 C1.75591013,6.08294758 1.87880328,5.40524192 2.12093477,4.77697103 C2.36443681,4.14600369 2.70798941,3.59188494 3.14062813,3.12899579 C3.57235314,2.66610665 4.08128611,2.29579533 4.65052353,2.0279488 C5.78351615,1.49630039 7.16503618,1.48236878 8.32772417,2.0279488 C8.89696159,2.29489652 9.40543772,2.67015131 9.83990384,3.14337681 C10.2716288,3.61390587 10.6179226,4.16712581 10.8687342,4.78595916 C11.1213733,5.40883718 11.248835,6.08384639 11.248835,6.7903141 C11.248835,7.49813002 11.1213733,8.16864517 10.8687342,8.78298445 Z M13.0058872,13.1489728 L13.0058872,6.7903141 C13.0058872,5.85150301 12.8363952,4.96212668 12.5015228,4.14600369 C12.1652798,3.32988069 11.7029457,2.61262722 11.1273124,2.01356778 C10.5530496,1.41495774 9.86320328,0.936788758 9.07878864,0.591644231 C8.29528769,0.247847925 7.43275138,0.0730286271 6.51539284,0.0730286271 C5.61402411,0.0730286271 4.76016798,0.243353856 3.97666704,0.579510244 C3.19225239,0.916116039 2.49920811,1.39024036 1.91535143,1.9892998 C1.3301242,2.58970747 0.859109927,3.30741034 0.515557327,4.12308393 C0.17291843,4.93606108 -0.000228425931,5.83397614 -0.000228425931,6.7903141 C-0.000228425931,7.74800028 0.168349911,8.64591534 0.502308623,9.4597913 C0.835810482,10.2741167 1.29997197,10.9868761 1.8833718,11.5778462 C2.46677163,12.1692657 3.15935905,12.6397948 3.94103259,12.9759512 C4.72361983,13.3121076 5.56742522,13.4824328 6.44823561,13.4824328 C7.35691397,13.4824328 8.20711528,13.2716609 8.97599697,12.8564089 C9.74624921,12.4398087 10.3894966,11.8807465 10.8865515,11.1940527 L11.3013729,10.6219576 L11.3004592,13.1489728 L13.0058872,13.1489728 Z" id="Fill-2" fill="#FFFFFF" mask="url(#mask-2)"></path>
                    </g>
                    <g id="Group-7" transform="translate(41.573519, 0.164573)">
                        <mask id="mask-4" fill="white">
                            <use xlink:href="#path-3"></use>
                        </mask>
                        <g id="Clip-6"></g>
                        <path d="M1.74864619,14.8938402 C2.17945749,15.2852736 2.7080351,15.5652542 3.31930289,15.725243 C3.8848855,15.8726485 4.5103157,15.9207351 5.18051738,15.8663568 L5.18051738,14.3100606 C4.83330996,14.3190487 4.50300607,14.2934325 4.18640773,14.2278191 C3.78483494,14.1451282 3.42437882,13.98469 3.11371955,13.7518972 C2.79986232,13.5150597 2.54996436,13.1874421 2.37042157,12.7775829 C2.19636101,12.3753637 2.1072749,11.8630398 2.1072749,11.2545428 L2.1072749,4.72825531 L5.12752256,4.72825531 L5.12752256,3.10275043 L2.1072749,3.10275043 L2.1072749,0.284519531 L0.350222638,0.284519531 L0.350222638,11.2545428 C0.350222638,12.0585318 0.476313752,12.7757853 0.725298017,13.3865293 C0.971541171,13.9941275 1.31600747,14.5006091 1.74864619,14.8938402" id="Fill-5" fill="#FFFFFF" mask="url(#mask-4)"></path>
                    </g>
                    <g id="Group-10" transform="translate(10.050741, 2.861014)">
                        <mask id="mask-6" fill="white">
                            <use xlink:href="#path-5"></use>
                        </mask>
                        <g id="Clip-9"></g>
                        <path d="M11.1819519,8.78298445 C10.931597,9.39372848 10.5898719,9.93706146 10.1663702,10.3990518 C9.7419548,10.8632892 9.23759034,11.2336005 8.66698237,11.501447 C8.09363328,11.7706418 7.47094419,11.9077109 6.81627547,11.9077109 C6.16252046,11.9077109 5.54028822,11.7760346 4.96739599,11.5153786 C4.39724486,11.257419 3.88785503,10.8902536 3.45384577,10.4260162 C3.0216639,9.96447529 2.67902501,9.41934467 2.43597982,8.80680302 C2.19293462,8.19471077 2.07004147,7.51655571 2.07004147,6.7903141 C2.07004147,6.08249817 2.19293462,5.40479251 2.43506611,4.77652162 C2.67765445,4.14735191 3.02029335,3.59278375 3.45384577,3.12899579 C3.88739818,2.66610665 4.39587431,2.29534593 4.96511173,2.0279488 C6.09764749,1.49630039 7.48008123,1.48191937 8.64139866,2.0279488 C9.21063608,2.29534593 9.71911221,2.67015131 10.1535783,3.14337681 C10.5857602,3.61480469 10.9320539,4.16712581 11.1824087,4.78595916 C11.434591,5.40793836 11.5625095,6.08204877 11.5625095,6.7903141 C11.5625095,7.49992765 11.434591,8.16954398 11.1819519,8.78298445 Z M13.3195617,13.1489728 L13.3195617,6.7903141 C13.3195617,5.85150301 13.1496128,4.96167728 12.8151973,4.14600369 C12.479868,3.33077951 12.0175339,2.61307663 11.4414437,2.01356778 C10.8658104,1.41495774 10.1764209,0.936339351 9.39246312,0.591644231 C8.60896218,0.247847925 7.74642586,0.0730286271 6.82952418,0.0730286271 C5.9276986,0.0730286271 5.07338562,0.243353856 4.29079838,0.579510244 C3.50638373,0.916116039 2.81242575,1.39068976 2.22856907,1.9892998 C1.64334183,2.58970747 1.17232756,3.30741034 0.829688667,4.12308393 C0.487049771,4.93606108 0.313446063,5.83397614 0.313446063,6.7903141 C0.313446063,7.74800028 0.482481252,8.64591534 0.816439963,9.4597913 C1.14948497,10.2732179 1.61410332,10.9859773 2.19704629,11.5778462 C2.78044612,12.1692657 3.47257669,12.6397948 4.25516393,12.9759512 C5.03775117,13.3121076 5.88109971,13.4824328 6.76236695,13.4824328 C7.67058846,13.4824328 8.52078977,13.2716609 9.28967146,12.8564089 C10.0599237,12.4407075 10.7031711,11.8807465 11.2011396,11.1940527 L11.6155043,10.6228564 L11.6150474,13.1489728 L13.3195617,13.1489728 Z" id="Fill-8" fill="#FFFFFF" mask="url(#mask-6)"></path>
                    </g>
                    <g id="Group-13" transform="translate(25.583704, 2.861014)">
                        <mask id="mask-8" fill="white">
                            <use xlink:href="#path-7"></use>
                        </mask>
                        <g id="Clip-12"></g>
                        <path d="M10.9608813,8.78298445 C10.7100696,9.39282966 10.3683444,9.93706146 9.94484271,10.3990518 C9.52042733,10.8632892 9.01606288,11.2336005 8.4454549,11.501447 C7.87210581,11.7706418 7.24895987,11.9077109 6.59429115,11.9077109 C5.94053614,11.9077109 5.31876075,11.7760346 4.74586852,11.5153786 C4.17571739,11.257419 3.66632757,10.8902536 3.2323183,10.4260162 C2.79967958,9.96357647 2.45704069,9.41844586 2.21445235,8.80680302 C1.97140716,8.19336255 1.84851401,7.51565689 1.84851401,6.7903141 C1.84851401,6.08384639 1.97140716,5.40614074 2.21353864,4.77652162 C2.45612698,4.14780131 2.79876588,3.59323316 3.2323183,3.12899579 C3.66632757,2.66610665 4.17434684,2.29534593 4.74358426,2.0279488 C5.87612002,1.49585099 7.25855376,1.48191937 8.4198712,2.0279488 C8.98956547,2.29534593 9.49804159,2.67060072 9.93205086,3.14337681 C10.3637759,3.61390587 10.7100696,4.16712581 10.9613381,4.78550976 C11.2135203,5.40793836 11.3414389,6.08204877 11.3414389,6.7903141 C11.3414389,7.49992765 11.2130635,8.16954398 10.9608813,8.78298445 Z M13.0980343,13.1489728 L13.0980343,6.7903141 C13.0980343,5.85060419 12.9285422,4.96077846 12.5936698,4.14600369 C12.2578837,3.3303301 11.7955496,2.61307663 11.2199163,2.01356778 C10.6442829,1.41450833 9.9544366,0.935889944 9.17093566,0.591644231 C8.38743471,0.247847925 7.5248984,0.0730286271 6.60799671,0.0730286271 C5.70662798,0.0730286271 4.852315,0.243353856 4.06927091,0.579959651 C3.28531311,0.915666632 2.59181199,1.38979095 2.0070416,1.9892998 C1.42181437,2.58970747 0.951256948,3.30741034 0.607704347,4.12308393 C0.265522302,4.93651049 0.0914617429,5.83397614 0.0914617429,6.7903141 C0.0914617429,7.74800028 0.260953784,8.64591534 0.594912495,9.4597913 C0.927957503,10.2741167 1.39257585,10.9868761 1.97597568,11.5778462 C2.55891865,12.1692657 3.25150608,12.6397948 4.03363646,12.9759512 C4.8162237,13.3121076 5.66002909,13.4824328 6.54083948,13.4824328 C7.44906099,13.4824328 8.29971916,13.2716609 9.06814399,12.8564089 C9.83839623,12.4407075 10.4821005,11.8816453 10.980069,11.1940527 L11.3944337,10.6228564 L11.39352,13.1489728 L13.0980343,13.1489728 Z" id="Fill-11" fill="#FFFFFF" mask="url(#mask-8)"></path>
                    </g>
                    <path d="M4.06525061,6.48898675 C3.82129172,7.2830888 3.69748486,8.33829629 3.69748486,9.62584716 C3.69748486,10.1956952 3.67098746,10.6958851 3.61799264,11.1138335 C3.56408412,11.5344784 3.49144467,11.8958016 3.40144486,12.1883655 C3.30779022,12.490367 3.19312041,12.7429337 3.06017652,12.9397739 C2.93225799,13.1289742 2.79109077,13.3001983 2.64124336,13.4476037 C2.31642168,13.7478076 1.90616871,13.9761063 1.41642351,14.1307023 C0.995662949,14.2641761 0.521450716,14.3315872 0.000182740745,14.3167568 L0.000182740745,16.0204585 C0.722922387,16.0415806 1.40957074,15.9530474 2.04550853,15.7526119 C2.7385528,15.5324025 3.33976986,15.1841121 3.83134246,14.7162795 C4.40880321,14.1796876 4.8217973,13.5190594 5.06027397,12.7492254 C5.30423286,11.963662 5.42803972,10.9129486 5.42803972,9.62584716 C5.42803972,9.05644857 5.45499398,8.55580925 5.50798879,8.1378608 C5.56281102,7.70867717 5.63362306,7.35724095 5.72453658,7.0628794 C5.8163638,6.76357439 5.93057677,6.50831125 6.06306381,6.30338168 C6.19143918,6.103845 6.3422003,5.91823994 6.51077863,5.75240878 C6.89224994,5.39602908 7.33722365,5.16638214 7.83656274,5.06391735 C8.23996293,4.98167588 8.67123109,4.94033045 9.12168703,4.94033045 L9.12579869,4.94033045 L9.12579869,3.25730147 C7.53184254,3.20606908 6.24032233,3.62671397 5.29326842,4.51204564 C4.71717822,5.04594108 4.30418414,5.71061393 4.06525061,6.48898675" id="Fill-14" fill="#FFFFFF"></path>
                </g>
            </g>
        </g>
    </g>
</svg>